# xmcd
#
# Track frame offsets:
#	150
#	10023
#	27953
#	41685
#	58732
#	72023
#	85661
#	98337
#	112713
#	124446
#	139042
#	154734
#	169429
#	190168
#	206524
#	226369
#	247550
#	260818
#	280790
#	297460
#
# Disc length: 4157 seconds
#
# Revision: 1
# Processed by: cddbd v1.5.2PL0 Copyright (c) Steve Scherf et al.
# Submitted via: audiograbber 1.83.01
#
DISCID=0f103b14
DTITLE=The Rolling Stones - Singles Collection The London Years- CD1
DYEAR=2003
DGENRE=
TTITLE0=Gotta Get Away
TTITLE1=19th Nnervous Breakdown
TTITLE2=Sad Day
TTITLE3=Paint It Black
TTITLE4=Stupid Girl
TTITLE5=Long Long While
TTITLE6=Mother´s Little Helper
TTITLE7=Lady Jane
TTITLE8=Have You Seen Your Mother, Baby, Standing In The Shadow
TTITLE9=Who´s Driving Your Plane
TTITLE10=Let Spend The Night Together
TTITLE11=Ruby Tuesday
TTITLE12=We Love You
TTITLE13=Dandelion
TTITLE14=She´s A Rainbow 40
TTITLE15=2000 Light Years From Home
TTITLE16=In Another Land
TTITLE17=The Lantern
TTITLE18=Jumping Jack Flash
TTITLE19=Child Of The Moon
EXTD=
EXTT0=
EXTT1=
EXTT2=
EXTT3=
EXTT4=
EXTT5=
EXTT6=
EXTT7=
EXTT8=
EXTT9=
EXTT10=
EXTT11=
EXTT12=
EXTT13=
EXTT14=
EXTT15=
EXTT16=
EXTT17=
EXTT18=
EXTT19=
PLAYORDER=
